<?xml version="1.0" standalone="no"?>
<!DOCTYPE svg PUBLIC "-//W3C//DTD SVG 20010904//EN"
 "http://www.w3.org/TR/2001/REC-SVG-20010904/DTD/svg10.dtd">
<svg version="1.0" xmlns="http://www.w3.org/2000/svg"
 width="172.000000pt" height="155.000000pt" viewBox="0 0 172.000000 155.000000"
 preserveAspectRatio="xMidYMid meet">

<g transform="translate(0.000000,155.000000) scale(0.100000,-0.100000)"
fill="#000000" stroke="none">
<path d="M0 775 l0 -775 860 0 860 0 0 775 0 775 -860 0 -860 0 0 -775z m832
195 l27 -13 -20 -39 c-17 -34 -24 -39 -42 -33 -52 16 -73 16 -87 0 -21 -25 -2
-46 58 -65 64 -21 89 -43 101 -86 33 -118 -86 -210 -220 -170 -86 25 -87 27
-61 80 l22 46 32 -20 c40 -24 91 -26 109 -4 20 24 0 46 -63 69 -69 25 -96 48
-104 91 -11 58 31 135 86 158 23 9 132 0 162 -14z m677 6 c6 -4 11 -36 11 -72
l0 -65 -26 20 c-33 26 -100 28 -133 5 -61 -43 -60 -147 2 -184 41 -25 83 -25
125 0 l32 20 0 -64 0 -64 -50 -12 c-88 -21 -187 19 -240 96 -35 53 -40 147
-10 209 24 50 71 93 122 112 33 13 146 12 167 -1z m-1043 -196 c40 -107 74
-201 74 -207 0 -9 -17 -13 -54 -13 -53 0 -55 1 -67 35 l-13 35 -77 0 -77 0
-12 -35 c-12 -35 -12 -35 -72 -35 -44 0 -59 3 -55 13 3 6 38 95 77 197 39 102
74 191 77 198 4 9 23 12 65 10 l60 -3 74 -195z m704 155 l0 -45 -65 0 -65 0 0
-35 0 -34 58 -3 57 -3 0 -45 0 -45 -57 -3 -58 -3 0 -79 0 -80 -55 0 -55 0 0
210 0 210 120 0 120 0 0 -45z"/>
<path d="M311 789 c-7 -23 -15 -47 -18 -55 -4 -11 5 -14 37 -14 32 0 41 3 37
14 -3 8 -11 32 -18 55 -7 23 -15 41 -19 41 -4 0 -12 -18 -19 -41z"/>
</g>
</svg>
