<?xml version="1.0" standalone="no"?>
<!DOCTYPE svg PUBLIC "-//W3C//DTD SVG 20010904//EN"
 "http://www.w3.org/TR/2001/REC-SVG-20010904/DTD/svg10.dtd">
<svg version="1.0" xmlns="http://www.w3.org/2000/svg"
 width="416.000000pt" height="616.000000pt" viewBox="0 0 416.000000 616.000000"
 preserveAspectRatio="xMidYMid meet">

<g transform="translate(0.000000,616.000000) scale(0.100000,-0.100000)"
fill="#000000" stroke="none">
<path d="M2078 6120 c-4 -14 -34 -150 -69 -302 -60 -268 -63 -277 -81 -261
-10 9 -25 42 -34 72 -25 92 -40 116 -101 162 -72 54 -103 111 -103 186 0 59
-9 65 -46 28 -61 -61 -68 -136 -23 -221 66 -123 63 -106 48 -212 -7 -54 -13
-98 -15 -100 -1 -2 -107 62 -234 143 -128 80 -233 145 -235 143 -1 -2 69 -115
156 -253 87 -137 158 -254 159 -259 0 -16 -65 4 -115 36 -52 34 -68 36 -215
27 -65 -3 -122 22 -165 72 -21 26 -28 30 -36 18 -27 -42 12 -148 68 -185 18
-12 57 -27 85 -34 82 -19 113 -37 148 -88 18 -26 44 -59 58 -74 14 -15 24 -29
21 -32 -2 -2 -122 -30 -266 -62 -145 -32 -263 -61 -263 -64 0 -4 136 -37 302
-74 167 -38 307 -72 312 -77 6 -5 -295 -9 -707 -9 l-718 0 4 -1412 c3 -1548
-1 -1451 62 -1699 239 -942 1115 -1596 2085 -1556 544 23 1029 239 1405 628
331 341 527 764 575 1238 6 66 10 587 10 1452 l0 1349 -717 0 c-394 0 -713 3
-709 7 4 4 150 39 323 78 174 39 310 74 302 77 -8 3 -140 34 -294 68 -154 35
-282 65 -285 68 -3 2 6 12 18 23 22 17 45 25 126 44 29 6 77 50 124 114 34 45
77 65 156 71 l69 5 -29 34 c-63 75 -134 79 -259 16 -79 -40 -94 -45 -130 -39
-22 4 -66 10 -98 13 l-58 6 149 235 c82 129 148 236 146 238 -1 2 -116 -68
-256 -156 l-253 -159 -3 28 c-2 20 8 48 33 88 39 63 43 86 30 193 -7 58 -5 72
15 113 12 25 37 58 56 73 38 30 30 42 -26 42 -48 0 -113 -32 -138 -67 -11 -16
-28 -58 -37 -93 -23 -89 -36 -110 -92 -149 -26 -19 -60 -45 -75 -59 l-27 -25
-6 24 c-3 13 -30 134 -60 269 -65 290 -60 271 -67 240z m2 -339 l0 -258 -56
-7 c-31 -4 -59 -4 -61 -2 -3 3 20 120 51 260 31 141 56 258 56 261 0 3 2 5 5
5 3 0 5 -116 5 -259z m75 -10 c30 -140 54 -256 52 -258 -2 -2 -30 -1 -61 3
l-56 7 1 261 c0 143 2 257 4 251 3 -5 29 -124 60 -264z m-447 78 c12 -20 47
-53 78 -73 59 -39 76 -68 89 -144 4 -26 19 -57 36 -77 37 -42 36 -52 -3 -60
-18 -4 -66 -22 -105 -41 -71 -34 -73 -34 -99 -17 -27 17 -27 17 -19 103 12
130 10 144 -34 224 -55 98 -55 159 -2 219 15 18 16 15 26 -40 6 -32 21 -75 33
-94z m859 71 c-50 -59 -62 -107 -46 -199 13 -83 15 -75 -51 -191 -11 -19 -20
-52 -20 -72 0 -21 -4 -38 -9 -38 -5 0 -28 11 -52 24 -24 13 -70 32 -101 42
-50 15 -58 21 -64 48 -6 27 -1 35 49 80 31 28 70 62 87 76 25 20 36 42 54 108
13 46 32 92 42 104 31 34 77 58 112 58 l34 0 -35 -40z m-1024 -400 c92 -58
166 -107 167 -110 0 -3 -20 -22 -43 -42 l-44 -36 -184 185 c-168 169 -179 182
-123 147 34 -22 136 -86 227 -144z m1188 -4 l-184 -184 -47 36 c-26 21 -45 39
-43 42 7 8 447 289 453 290 3 0 -78 -83 -179 -184z m-1121 -196 c-1 -3 -18
-24 -39 -48 l-38 -43 -133 208 c-73 114 -140 219 -148 233 -8 14 69 -58 171
-160 103 -102 187 -187 187 -190z m1277 303 c-147 -229 -250 -388 -252 -391
-1 -1 -19 18 -40 44 l-38 46 184 184 c101 101 185 184 186 184 2 0 -17 -30
-40 -67z m-664 -138 c233 -49 432 -247 487 -485 14 -60 17 -191 6 -257 l-8
-43 -623 0 -623 0 -6 23 c-29 102 -11 280 39 394 124 279 427 432 728 368z
m-1125 -186 c27 -8 62 -9 108 -3 93 11 109 8 174 -32 40 -25 67 -34 98 -34 35
0 42 -3 42 -19 0 -11 -4 -22 -10 -26 -5 -3 -24 -44 -41 -90 -26 -68 -37 -86
-58 -93 -33 -12 -58 7 -124 94 -47 62 -79 82 -157 99 -91 19 -150 80 -150 156
l0 31 39 -35 c22 -20 58 -41 79 -48z m2083 15 c14 -7 31 -19 37 -27 10 -12 3
-15 -43 -20 -75 -8 -127 -40 -170 -103 -38 -59 -69 -79 -145 -95 -32 -7 -65
-23 -86 -41 -39 -35 -45 -32 -63 32 -7 25 -26 69 -41 98 -28 52 -28 55 -13 79
l17 26 118 -7 119 -7 66 37 c102 57 138 62 204 28z m-76 -409 l150 -33 -257
-1 -258 -1 0 38 c0 20 -3 47 -6 59 l-6 21 114 -24 c62 -14 181 -40 263 -59z
m-1675 43 c0 -18 -3 -43 -6 -55 l-6 -23 -252 1 -251 1 235 53 c129 29 245 54
258 54 18 1 22 -4 22 -31z m-5 -131 c4 -19 5 -45 3 -59 l-3 -25 -260 58 -260
57 257 1 257 1 6 -33z m1820 27 c-13 -5 -510 -113 -511 -111 -1 1 1 28 3 60
l5 57 257 -1 c141 0 252 -2 246 -5z m-1175 -735 l0 -542 -48 45 c-26 24 -56
49 -67 55 -19 11 -19 12 -2 30 9 11 20 34 23 51 6 31 5 32 -25 32 -55 0 -98
26 -197 120 -102 98 -166 135 -246 146 -62 8 -64 32 -8 83 116 104 -2 272
-144 205 -32 -16 -37 -16 -72 1 -55 26 -111 15 -151 -29 -26 -28 -33 -44 -33
-76 0 -49 20 -91 54 -114 31 -20 33 -49 6 -76 -17 -17 -36 -20 -147 -22 l-128
-3 -9 -28 c-8 -23 -5 -39 22 -92 23 -47 37 -65 51 -65 13 0 21 8 23 23 3 20
10 22 63 25 68 4 100 -10 121 -49 13 -25 16 -26 43 -16 35 13 61 -3 61 -38 0
-27 -62 -85 -90 -85 -29 0 -24 -19 8 -31 20 -8 41 -7 80 2 95 22 189 -20 239
-107 18 -30 23 -55 23 -110 0 -78 5 -84 59 -84 l28 0 -30 -60 c-26 -51 -30
-73 -31 -139 l-1 -79 -30 16 c-45 23 -120 19 -159 -9 -17 -12 -35 -29 -40 -37
-12 -21 -68 -41 -99 -35 -15 3 -27 7 -27 8 0 2 14 17 30 33 30 30 37 62 23 98
-4 10 -186 205 -406 434 -220 228 -420 442 -444 475 -25 33 -60 90 -79 128
-19 37 -38 67 -42 67 -14 0 -79 -73 -98 -110 -27 -51 -26 -172 3 -225 25 -48
53 -75 396 -374 147 -129 267 -237 267 -240 0 -3 -4 -12 -9 -20 -7 -10 -56 15
-217 109 -250 147 -312 189 -400 276 -72 72 -75 72 -95 -1 -27 -97 12 -214 91
-275 19 -15 158 -83 308 -151 270 -122 286 -132 264 -167 -18 -28 -404 44
-600 113 l-95 33 6 -53 c7 -69 36 -124 91 -172 60 -53 100 -63 248 -63 69 0
180 -3 247 -7 112 -6 124 -8 131 -27 4 -12 7 -22 5 -24 -1 -1 -100 -25 -219
-52 -236 -55 -377 -80 -443 -80 -35 0 -43 -3 -43 -19 0 -34 63 -114 114 -146
44 -27 58 -30 130 -30 80 0 83 1 306 97 163 69 228 93 238 86 6 -6 12 -14 12
-18 0 -9 -366 -326 -466 -404 -39 -30 -103 -72 -142 -94 l-72 -39 28 -25 c51
-48 91 -63 172 -63 57 0 84 5 115 22 53 28 55 30 281 283 172 194 198 219 215
210 10 -6 19 -14 19 -18 0 -4 -52 -119 -116 -257 -127 -272 -212 -425 -280
-503 -49 -56 -47 -62 21 -81 54 -15 82 -14 144 5 64 19 137 81 161 139 10 22
57 176 106 343 81 278 90 302 110 302 51 0 51 -2 37 -123 -7 -62 -17 -143 -23
-181 -6 -38 -9 -71 -6 -73 14 -15 92 13 127 44 53 48 63 85 55 214 l-6 107 52
11 c28 7 78 23 110 38 32 14 60 24 62 22 2 -2 24 -60 48 -129 l45 -124 -67
-34 c-88 -43 -165 -113 -240 -216 -69 -96 -111 -136 -181 -171 -29 -15 -47
-30 -43 -36 9 -15 68 -39 96 -40 16 0 33 -15 56 -51 28 -44 31 -53 19 -67 -42
-50 -231 -277 -234 -280 -2 -3 -34 25 -71 61 -80 79 -143 124 -182 133 -76 17
-160 -85 -120 -145 9 -13 14 -11 31 13 20 26 49 37 49 17 0 -20 41 -50 69 -50
16 0 34 -7 41 -15 11 -13 -5 -15 -135 -15 l-147 0 -34 -34 c-27 -27 -34 -42
-34 -74 0 -43 29 -90 48 -78 6 4 9 13 6 20 -3 7 2 21 11 30 15 14 19 14 45 1
32 -16 54 -12 87 18 17 15 29 18 63 12 23 -4 38 -10 33 -15 -4 -4 -44 -22 -88
-40 -93 -38 -110 -51 -125 -95 -14 -42 6 -95 44 -120 29 -19 68 -13 48 7 -7 7
-12 22 -12 35 0 19 5 23 30 23 31 0 70 30 70 54 0 16 91 52 169 66 68 13 208
13 216 1 3 -5 -2 -31 -11 -56 -8 -26 -13 -54 -10 -62 9 -23 -12 -43 -45 -43
-38 0 -43 -13 -15 -39 50 -47 137 -36 178 21 17 25 21 43 20 106 -2 97 -15
133 -58 172 -25 21 -33 35 -26 43 5 7 53 68 108 137 54 69 99 127 101 129 1 2
15 -1 30 -7 15 -6 42 -14 59 -17 32 -6 32 -6 39 44 14 104 93 219 183 265 38
19 42 11 42 -78 0 -139 -46 -240 -166 -366 -48 -51 -94 -111 -105 -136 -20
-44 -38 -154 -26 -154 4 0 30 18 59 40 49 37 122 70 155 70 8 0 -35 -48 -95
-107 -92 -92 -112 -117 -131 -168 -46 -121 -9 -258 90 -334 l44 -34 6 69 c8
90 25 127 89 199 74 84 126 167 141 225 7 28 16 50 20 50 15 0 21 -114 10
-180 -14 -79 -45 -148 -107 -242 -26 -38 -43 -72 -39 -76 8 -8 91 -9 118 -2
14 4 22 -8 41 -62 27 -78 54 -125 108 -190 l38 -47 0 -176 0 -177 -92 7 c-381
27 -695 129 -993 323 -419 272 -728 701 -849 1177 -64 252 -60 156 -63 1678
l-4 1387 1001 0 1000 0 0 -541z m-812 149 c7 -7 12 -27 12 -45 0 -31 -2 -33
-33 -33 -38 0 -57 15 -57 45 0 27 18 45 45 45 12 0 26 -5 33 -12z m202 -7 c5
-11 10 -24 10 -30 0 -20 -33 -41 -66 -41 -30 0 -34 3 -34 26 0 41 18 64 50 64
19 0 33 -7 40 -19z m1551 -10 l29 -29 0 -1046 0 -1046 -100 0 -100 0 2 1046 3
1046 33 29 c44 40 93 40 133 0z m319 -266 l0 -45 80 0 80 0 0 45 0 45 80 0 80
0 0 -85 0 -85 -50 0 -50 0 0 -75 0 -75 50 0 50 0 0 -155 0 -155 -50 0 -50 0 0
-75 0 -75 50 0 50 0 0 -85 0 -85 -80 0 -80 0 0 40 0 40 -80 0 -80 0 0 -40 0
-40 -75 0 -75 0 0 155 0 155 -50 0 -50 0 0 160 0 160 50 0 50 0 0 160 0 160
75 0 75 0 0 -45z m-1970 -19 c0 -17 -24 -28 -45 -20 -27 11 -17 34 15 34 19 0
30 -5 30 -14z m1834 -1882 c19 -18 21 -75 4 -92 -9 -9 -79 -12 -252 -12 -209
0 -242 2 -258 17 -24 21 -23 58 2 83 19 19 33 20 254 20 200 0 237 -2 250 -16z
m-279 -166 c-18 -65 -76 -159 -137 -223 -70 -74 -142 -123 -227 -155 l-51 -20
0 58 0 58 48 23 c81 39 150 100 202 178 28 41 50 81 50 89 0 10 15 14 61 14
58 0 60 -1 54 -22z m185 8 c0 -8 22 -48 50 -89 52 -78 121 -139 203 -178 l47
-23 0 -58 0 -58 -51 20 c-163 61 -317 221 -364 378 -6 21 -4 22 54 22 46 0 61
-4 61 -14z m-648 -173 c16 -15 18 -36 18 -251 0 -259 -3 -272 -61 -272 -57 0
-59 9 -59 270 0 204 2 241 16 254 20 21 63 20 86 -1z m1079 7 c18 -10 19 -24
19 -255 0 -208 -2 -246 -16 -259 -20 -21 -63 -20 -86 1 -16 15 -18 36 -18 251
0 205 2 238 17 254 18 20 54 23 84 8z m-1221 -260 c0 -131 -4 -138 -54 -99
-31 24 -56 69 -56 99 0 34 29 79 63 100 18 11 35 20 40 20 4 0 7 -54 7 -120z
m1353 81 c55 -54 44 -145 -23 -185 -48 -28 -50 -24 -50 105 0 120 0 120 23
114 12 -4 35 -19 50 -34z m-1043 -164 c100 -49 208 -161 259 -267 23 -46 41
-90 41 -97 0 -9 -17 -13 -57 -13 l-58 0 -24 58 c-32 75 -144 188 -223 226
l-58 28 0 55 c0 55 0 55 28 49 15 -4 56 -21 92 -39z m780 -11 l0 -55 -70 -37
c-86 -45 -168 -130 -207 -214 l-28 -60 -58 0 c-68 0 -68 -2 -12 115 58 120
185 238 310 288 62 25 65 23 65 -37z m-188 -413 c22 -20 23 -61 1 -85 -15 -16
-36 -18 -250 -18 -142 0 -242 4 -254 10 -26 14 -27 84 -1 99 10 6 111 11 251
11 204 0 237 -2 253 -17z m-132 -138 c0 -3 -6 -21 -14 -40 -16 -38 -68 -75
-104 -75 -50 0 -122 60 -122 101 0 18 10 19 120 19 66 0 120 -2 120 -5z"/>
<path d="M2013 5350 c-33 -20 -51 -59 -38 -81 6 -8 -4 -9 -36 -3 -84 15 -101
12 -122 -23 l-19 -33 123 0 c96 0 120 3 111 12 -31 31 -1 68 53 68 54 0 84
-37 53 -68 -9 -9 14 -12 105 -12 64 0 117 2 117 5 0 4 -7 20 -16 37 -17 32
-25 33 -121 13 -31 -7 -33 -6 -33 19 0 40 -16 62 -51 75 -47 16 -90 13 -126
-9z"/>
<path d="M1678 5148 c15 -15 17 -310 2 -339 -10 -18 -7 -19 50 -19 55 0 75 10
50 25 -15 9 -13 318 2 333 9 9 -2 12 -52 12 -50 0 -61 -3 -52 -12z"/>
<path d="M1883 5149 c15 -9 17 -28 17 -166 0 -132 -3 -159 -17 -175 -15 -17
-13 -18 52 -18 65 0 67 1 52 18 -12 13 -17 37 -17 75 l0 57 75 0 75 0 0 -57
c0 -38 -5 -62 -17 -75 -15 -17 -13 -18 52 -18 65 0 67 1 52 18 -14 16 -17 43
-17 173 0 107 4 159 12 167 9 9 -2 12 -52 12 -49 -1 -61 -3 -47 -11 13 -8 17
-23 17 -69 l0 -60 -75 0 -75 0 0 60 c0 46 4 61 18 69 13 8 -1 10 -53 10 -52 0
-66 -2 -52 -10z"/>
<path d="M2290 5121 c11 -22 33 -63 50 -91 l31 -52 -51 -89 c-27 -49 -50 -91
-50 -94 0 -3 54 -5 120 -5 l120 0 20 40 20 40 -75 0 -74 0 29 50 c17 28 30 54
30 57 0 3 -13 28 -30 54 l-30 49 60 0 60 0 -20 40 -20 40 -105 0 -105 0 20
-39z"/>
<path d="M1292 4428 c-30 -30 -3 -82 40 -76 29 4 47 50 28 72 -15 19 -51 21
-68 4z"/>
<path d="M845 3787 c-14 -56 43 -116 118 -124 38 -5 59 1 135 36 49 23 100 40
113 39 32 -4 32 23 -1 39 -36 18 -77 16 -143 -7 -31 -11 -68 -20 -82 -20 -31
0 -93 25 -117 47 -16 14 -18 13 -23 -10z"/>
<path d="M3330 3730 l0 -110 -45 0 -45 0 0 -75 0 -75 45 0 45 0 0 -115 0 -115
80 0 80 0 0 115 0 115 45 0 45 0 0 75 0 75 -45 0 -45 0 0 110 0 110 -80 0 -80
0 0 -110z"/>
</g>
</svg>
