<?xml version="1.0" standalone="no"?>
<!DOCTYPE svg PUBLIC "-//W3C//DTD SVG 20010904//EN"
 "http://www.w3.org/TR/2001/REC-SVG-20010904/DTD/svg10.dtd">
<svg version="1.0" xmlns="http://www.w3.org/2000/svg"
 width="200.000000pt" height="200.000000pt" viewBox="0 0 200.000000 200.000000"
 preserveAspectRatio="xMidYMid meet">

<g transform="translate(0.000000,200.000000) scale(0.100000,-0.100000)"
fill="#000000" stroke="none">
<path d="M0 1859 c0 -117 7 -181 40 -382 44 -264 59 -317 95 -341 51 -33 165
-13 199 35 25 36 20 97 -33 414 -27 160 -47 291 -46 293 6 6 247 44 251 39 3
-3 28 -139 55 -304 41 -240 50 -314 46 -378 -10 -181 -116 -288 -327 -331 -81
-16 -199 -15 -257 2 l-23 6 0 -147 0 -147 41 52 c96 122 299 199 526 200 117
0 113 3 113 -100 0 -48 -3 -100 -6 -116 l-5 -29 -122 -1 c-101 0 -132 -4 -178
-23 -106 -41 -149 -105 -149 -222 0 -113 48 -208 127 -248 27 -13 148 -15 172
-1 17 9 17 15 -5 147 -13 75 -22 138 -21 139 7 7 250 44 255 39 3 -3 22 -106
42 -228 l36 -222 68 -3 68 -3 -6 28 c-11 52 -145 877 -143 879 4 3 542 91 545
89 7 -5 39 -216 33 -219 -3 -2 -67 -14 -141 -26 -74 -12 -136 -22 -137 -24 -5
-4 10 -104 16 -115 5 -8 42 -5 130 10 67 11 127 19 134 16 10 -3 50 -196 42
-205 -1 -1 -61 -12 -134 -24 -130 -20 -131 -21 -131 -47 1 -32 16 -110 22
-117 3 -2 66 5 141 18 75 12 139 19 141 17 3 -3 13 -51 22 -108 13 -77 14
-105 6 -110 -7 -4 -79 -18 -162 -30 -82 -13 -150 -25 -150 -27 0 -2 182 -4
405 -4 l405 0 0 50 c0 48 -1 50 -28 50 -54 0 -186 40 -240 73 -75 45 -149 129
-191 217 -32 67 -36 85 -39 175 -5 117 10 181 63 271 40 67 130 154 187 180
21 9 38 21 38 26 0 4 12 8 26 8 23 0 25 3 20 25 -7 28 -4 30 25 15 16 -9 19
-7 19 8 0 30 11 33 30 9 17 -20 19 -20 25 -4 10 25 25 21 25 -7 0 -19 4 -23
20 -19 17 5 20 14 20 64 0 69 7 66 -124 43 -48 -8 -89 -14 -91 -12 -1 2 -30
176 -65 388 -34 212 -64 397 -67 413 -5 27 -6 27 -85 27 l-80 0 6 -27 c3 -16
19 -109 36 -208 76 -465 100 -618 98 -620 -4 -3 -312 -55 -326 -55 -10 0 -223
306 -297 425 -27 44 -35 52 -30 31 14 -64 84 -490 81 -493 -5 -6 -238 -44
-242 -40 -3 3 -154 908 -154 925 0 5 66 20 148 34 l147 26 -477 1 -478 1 0
-141z"/>
<path d="M1124 1816 c69 -101 141 -210 161 -242 22 -36 35 -49 31 -34 -11 54
-55 299 -67 378 l-12 82 -119 0 -119 0 125 -184z"/>
<path d="M1920 1983 c1 -10 18 -119 39 -243 l39 -225 1 243 1 242 -40 0 c-32
0 -40 -4 -40 -17z"/>
<path d="M1876 1049 c-29 -23 -33 -54 -10 -87 30 -43 114 -15 114 38 0 24 -42
70 -63 70 -8 0 -26 -9 -41 -21z m47 -5 c8 -3 13 -13 10 -24 -3 -10 0 -21 6
-24 7 -4 8 -1 5 8 -4 10 -1 16 8 16 7 0 14 -9 15 -21 2 -18 -3 -20 -28 -17
-16 3 -29 1 -29 -4 0 -4 5 -8 12 -8 6 0 8 -3 4 -7 -4 -4 -16 3 -28 17 -13 16
-18 19 -14 8 7 -22 -10 -24 -18 -2 -10 25 -8 27 24 22 17 -3 30 -1 30 4 0 4
-9 8 -20 8 -13 0 -18 5 -14 15 7 16 14 18 37 9z"/>
<path d="M1755 981 c-96 -55 -181 -167 -209 -276 -56 -212 42 -424 241 -522
59 -29 86 -36 145 -39 42 -2 61 0 44 4 -59 14 -57 71 3 73 14 0 -3 7 -39 14
-87 17 -125 34 -185 82 -33 26 -62 62 -85 104 -29 55 -35 76 -38 149 -4 96 18
175 65 231 22 25 24 32 12 40 -14 9 -28 12 -41 10 -13 -2 -9 27 4 35 6 4 21
-4 35 -20 l23 -27 22 21 c13 12 43 33 68 46 35 18 38 22 16 18 -26 -6 -27 -5
-17 14 15 28 14 29 -11 36 -23 6 -23 7 -4 21 33 25 4 17 -49 -14z m6 -92 c-26
-22 -51 -11 -51 22 0 30 30 40 54 17 l21 -19 -24 -20z m-126 -110 c10 -15 -1
-23 -20 -15 -9 3 -13 10 -10 16 8 13 22 13 30 -1z m-35 -104 c18 0 25 -31 11
-49 -18 -22 -56 -14 -59 12 -4 24 17 59 27 45 3 -4 13 -8 21 -8z m12 -110 c10
-21 9 -29 -6 -43 -16 -16 -17 -16 -14 8 2 14 -1 25 -7 25 -5 0 -9 -11 -7 -24
2 -15 -1 -22 -10 -19 -14 5 -23 42 -14 64 9 23 45 16 58 -11z m9 -88 c-16 -16
-13 -24 11 -31 27 -7 16 -21 -24 -31 -27 -7 -39 7 -18 20 17 10 11 25 -10 25
-29 0 -25 17 8 28 31 11 49 5 33 -11z m61 -102 c12 -27 -2 -55 -28 -55 -19 0
-48 46 -40 65 9 25 55 18 68 -10z m38 -59 c0 -8 -6 -16 -12 -19 -10 -3 -10 -8
1 -21 21 -25 3 -33 -21 -8 -21 21 -21 22 -3 42 21 23 35 26 35 6z m80 -81 c0
-19 -4 -35 -10 -35 -5 0 -10 4 -10 10 0 5 -11 12 -25 16 -31 8 -32 18 -2 32
38 18 47 14 47 -23z m80 -41 c0 -17 -22 -14 -28 4 -2 7 3 12 12 12 9 0 16 -7
16 -16z"/>
<path d="M1735 900 c-3 -5 -2 -10 4 -10 5 0 13 5 16 10 3 6 2 10 -4 10 -5 0
-13 -4 -16 -10z"/>
<path d="M1635 371 c-7 -12 12 -24 25 -16 11 7 4 25 -10 25 -5 0 -11 -4 -15
-9z"/>
<path d="M1886 899 c-12 -18 -19 -21 -25 -11 -4 7 -15 10 -25 6 -16 -6 -15 -8
3 -25 11 -11 25 -19 31 -19 5 0 10 -4 10 -10 0 -5 11 -10 25 -10 19 0 25 5 25
23 -1 12 -7 33 -14 46 l-13 24 -17 -24z"/>
<path d="M1946 911 c-3 -5 6 -80 22 -167 l27 -159 3 154 c2 137 1 155 -15 167
-21 16 -30 17 -37 5z"/>
<path d="M1755 838 c-50 -46 -52 -65 -10 -88 13 -7 39 -13 57 -14 30 -1 33 -4
33 -31 1 -48 29 -44 48 7 25 65 23 71 -20 63 -57 -10 -105 -8 -117 6 -8 9 -8
10 1 5 6 -3 22 -1 35 4 23 10 23 10 1 6 -28 -5 -30 15 -4 31 15 9 37 53 26 53
-2 0 -24 -19 -50 -42z"/>
<path d="M1686 754 c-9 -23 6 -37 34 -32 l22 3 -25 23 c-22 21 -25 21 -31 6z"/>
<path d="M1655 679 c-4 -6 -5 -13 -2 -15 9 -9 77 8 71 17 -7 13 -61 11 -69 -2z"/>
<path d="M1690 619 l-45 -17 3 -47 c4 -54 14 -83 48 -142 22 -38 26 -40 48
-30 25 12 25 30 1 25 -13 -3 -15 0 -15 22 0 16 47 12 54 -5 3 -8 13 -15 22
-15 14 0 14 3 4 16 -11 13 -10 16 6 20 19 5 84 94 84 115 0 5 -12 9 -27 7 -25
-3 -29 -8 -33 -48 -4 -38 -9 -46 -29 -48 -23 -4 -24 -2 -17 36 3 22 8 49 12
59 3 10 -6 -3 -21 -29 -17 -32 -32 -48 -45 -48 -27 0 -34 18 -16 43 53 75 53
74 8 39 -42 -34 -72 -37 -72 -7 0 13 43 47 75 59 6 2 8 5 5 8 -3 2 -25 -3 -50
-13z"/>
<path d="M1893 430 c-47 -46 -50 -51 -32 -60 23 -13 25 -45 4 -54 -9 -3 -15 0
-15 9 0 23 -33 35 -54 19 -15 -11 -17 -16 -7 -28 19 -23 93 -54 146 -61 48 -7
49 -6 28 10 -13 9 -23 27 -23 41 0 13 -5 24 -11 24 -7 0 -8 -11 -4 -30 7 -31
-2 -39 -23 -18 -19 19 -14 44 17 101 33 59 46 97 34 97 -4 0 -31 -23 -60 -50z"/>
<path d="M1981 352 c-12 -57 -12 -65 3 -80 15 -15 16 -15 16 0 0 9 -5 20 -10
23 -8 5 -8 11 0 20 6 8 10 33 8 57 l-3 43 -14 -63z"/>
<path d="M1957 194 c-8 -9 1 -24 14 -24 6 0 8 4 5 9 -4 5 0 12 6 14 9 4 8 6
-3 6 -9 1 -19 -2 -22 -5z"/>
<path d="M0 33 c0 -26 4 -33 20 -33 25 0 25 8 0 40 l-20 25 0 -32z"/>
</g>
</svg>
